<svg width="151" height="62" viewBox="0 0 151 62" fill="none" xmlns="http://www.w3.org/2000/svg">
<g id="logo" clip-path="url(#clip0_1455_178)">
<path id="Vector" d="M17.9808 4.28267C17.5875 4.28267 17.2087 4.2244 16.8591 4.10787C16.4949 3.99134 16.189 3.77284 15.9122 3.4815L14.7906 2.22878H12.9988L12.518 3.17561C12.3578 3.4815 12.1102 3.75827 11.7605 3.97677C11.4109 4.19527 11.0613 4.29724 10.7117 4.29724H8.94905C8.67227 4.29724 8.41005 4.25354 8.16241 4.137C7.9002 4.03504 7.68169 3.8748 7.49231 3.6563L6.21038 2.22878H4.70995L4.24379 3.14647C4.14182 3.3504 4.01071 3.5252 3.86504 3.6563C3.71937 3.7874 3.57369 3.9185 3.41345 4.02047C3.09297 4.20984 2.68508 4.3118 2.18979 4.3118H1.37402V3.07364H1.84018C2.07326 3.07364 2.29177 3.00081 2.49571 2.84057C2.69965 2.68034 2.85989 2.52011 2.9473 2.31617L4.09812 0.0292151H5.81707L5.33634 0.946912H10.3475V2.24334H8.19154L8.59943 2.70947C8.67227 2.78231 8.7888 2.86971 8.94905 2.94254C9.12385 3.02994 9.25496 3.05907 9.3715 3.05907H10.2018C10.3475 3.05907 10.5223 3.00081 10.6971 2.88427C10.8719 2.76774 11.003 2.65121 11.0759 2.50554L12.3724 0.0146484H14.1059L13.6543 0.932346H19.3356V2.22878H16.8445L17.1505 2.63664C17.2379 2.75317 17.369 2.85514 17.5292 2.94254C17.6895 3.02994 17.8351 3.05907 18.0099 3.05907H19.3647V4.29724H17.9662L17.9808 4.28267ZM5.38004 16.606C5.11783 16.9119 4.75365 17.1304 4.3312 17.247C3.90874 17.3635 3.50086 17.4218 3.10754 17.4218H1.63624V16.1108H2.97643C3.15124 16.1108 3.35518 16.0525 3.60283 15.9651C3.83591 15.8631 4.02528 15.7466 4.18552 15.6009L5.72966 13.9112H7.82736L5.39461 16.6206L5.38004 16.606ZM11.2653 13.11V17.6548H9.66284V13.11H1.66537V11.8282H9.66284V11.0998H11.2653V11.8282H19.321V13.11H11.2653ZM1.69451 10.6337V9.33729H4.56427V6.1909H1.82561V4.86533H8.58486V6.1909H6.10841V9.33729H8.64313V10.6337H1.69451ZM18.0099 10.6774C17.6458 10.6774 17.3398 10.6191 17.0922 10.488C16.8445 10.3569 16.6406 10.1967 16.4949 9.97822C16.3784 9.80342 16.291 9.58492 16.2327 9.35185C16.1744 9.11879 16.1453 8.85659 16.1453 8.59439V6.17633H14.6012L13.4212 8.62352C13.6543 8.78375 13.8728 8.90029 14.0768 8.95855C14.2953 9.01682 14.4701 9.04595 14.6157 9.04595H15.6063V10.2841H14.5575C14.4118 10.2841 14.2661 10.2841 14.1205 10.255C13.9748 10.255 13.8291 10.2113 13.6834 10.1821C13.3338 10.0656 13.0279 9.90538 12.7657 9.65775C12.5617 9.93452 12.2995 10.1676 11.9791 10.3424C11.8188 10.4443 11.644 10.5172 11.4692 10.5754C11.2944 10.6337 11.1196 10.6628 10.9156 10.6483H9.25496V9.36642H10.4495C10.6389 9.36642 10.8137 9.32272 10.9885 9.24989C11.1633 9.16249 11.3235 9.01682 11.4692 8.78375L9.15299 6.77356H11.1196L12.0956 7.58929L12.7948 6.17633H9.42977V4.85077H17.6749V8.74005C17.6749 8.88572 17.7332 9.03139 17.8351 9.16249C17.9517 9.27902 18.0973 9.35185 18.2867 9.35185H19.4084V10.6483H18.0245L18.0099 10.6774ZM17.7477 17.4072C17.3544 17.4072 16.9757 17.3344 16.5969 17.1887C16.4075 17.1159 16.2327 17.0139 16.087 16.9119C15.9268 16.81 15.7957 16.6789 15.6646 16.5332L13.3338 13.8966H15.3878L16.7134 15.4407C16.8591 15.6155 17.0485 15.7757 17.2961 15.9068C17.5292 16.0379 17.7623 16.0962 17.9954 16.0962H19.423V17.4072H17.7769H17.7477Z" fill="black"/>
<path id="Vector_2" d="M35.214 6.55499C34.9809 6.83175 34.7041 7.03568 34.3836 7.19592C34.0631 7.35615 33.699 7.42898 33.2911 7.42898H29.6784V17.6693H28.0614V0.218506H35.7675V4.87982C35.7675 5.52076 35.5782 6.07429 35.214 6.54042V6.55499ZM34.1651 1.58777H29.6784V3.08813H34.1651V1.58777ZM34.1651 4.32629H29.6784V6.14712H33.1745C33.3931 6.14712 33.6116 6.04515 33.8301 5.87035C34.0486 5.68099 34.1651 5.41879 34.1651 5.09832V4.32629ZM40.9681 15.1493C40.8661 15.4406 40.735 15.7028 40.5602 15.9359C40.3562 16.2127 40.1086 16.4166 39.8027 16.5768C39.4968 16.7225 39.1472 16.8099 38.7393 16.8099H31.9655V8.90021H41.1283V14.217C41.1283 14.5375 41.07 14.858 40.9826 15.1493H40.9681ZM39.5259 10.2112H33.5679V12.2068H39.5259V10.2112ZM39.5259 13.4887H33.5679V15.5572H38.5208C38.8121 15.5572 39.0452 15.4552 39.2346 15.2513C39.4239 15.0473 39.5259 14.7997 39.5259 14.4938V13.4887ZM44.7847 16.2272C44.6827 16.5186 44.5225 16.7662 44.3331 16.9701C44.1001 17.2178 43.8378 17.3926 43.5465 17.5091C43.2551 17.6256 42.9347 17.6839 42.585 17.6839H41.0263V16.3438H42.3228C42.6142 16.3438 42.8618 16.2418 43.0512 16.0233C43.226 15.8048 43.328 15.5426 43.328 15.2367V7.44355H37.2243V0.218506H44.9595V15.2221C44.9595 15.6009 44.9013 15.9359 44.7993 16.2272H44.7847ZM43.328 1.58777H38.7975V3.08813H43.328V1.58777ZM43.328 4.32629H38.7975V6.14712H43.328V4.32629Z" fill="black"/>
<path id="Vector_3" d="M61.2313 5.41887C61.0856 5.59366 60.9108 5.73933 60.736 5.87043C60.5466 5.98696 60.3718 6.1035 60.1824 6.1909C59.7163 6.39483 59.2355 6.49679 58.7257 6.49679H53.7873V5.2732H56.8902L55.8996 4.28267H57.7642L58.7839 5.21493C58.9296 5.21493 59.1044 5.15667 59.3084 5.06927C59.5123 4.98187 59.6725 4.89447 59.7745 4.7925L60.969 3.5689H55.8268L55.6228 3.9185C55.4626 4.1807 55.2732 4.37007 55.0547 4.4866C54.909 4.55943 54.7634 4.60313 54.6177 4.63227C54.472 4.6614 54.3118 4.67597 54.1515 4.67597H53.3795V3.3941H53.831C53.9622 3.3941 54.1078 3.33584 54.2826 3.23387C54.4574 3.13191 54.5594 3.02994 54.6177 2.94254L55.4626 1.51501H57.1233L56.4969 2.40357H57.6768V0.0146484H59.1773V0.626447H62.688V1.70438H59.1773V2.41814H62.8919V3.6126L61.2313 5.41887ZM70.6126 11.2601C70.5252 11.2601 70.3941 11.2601 70.263 11.2309C70.1173 11.2164 70.0154 11.1872 69.928 11.1581V12.1486C69.928 12.7313 69.7823 13.212 69.4764 13.5907C69.0976 14.0277 68.5732 14.2608 67.8885 14.2608H62.5278L63.5038 15.0183H68.1362C68.2382 15.0183 68.3693 14.9891 68.5004 14.9309C68.6315 14.8726 68.7334 14.7998 68.8063 14.7124L69.1705 14.2462H71.0351L70.2484 15.2659C70.1319 15.4116 69.9717 15.5427 69.724 15.6592C69.4909 15.7757 69.2724 15.834 69.0685 15.834H64.5818L64.9896 16.1399C65.1353 16.2564 65.3684 16.3438 65.6597 16.4167C65.9511 16.4749 66.2133 16.5041 66.4027 16.5041H71.3556V17.582H65.6743C65.2664 17.582 64.8877 17.5237 64.538 17.4072C64.2467 17.3052 63.9408 17.1304 63.6057 16.8828L60.2407 14.2899H56.424V15.4698C56.424 15.5718 56.4532 15.6592 56.5114 15.7612C56.5697 15.8631 56.628 15.9505 56.7008 16.0379C56.7737 16.1253 56.8611 16.1836 56.9485 16.2419C57.0504 16.3001 57.1233 16.3293 57.2107 16.3293H62.0616V17.6111H56.9485C56.6571 17.6111 56.3949 17.5529 56.1327 17.4509C55.8705 17.3489 55.652 17.2033 55.448 17.0139C55.2441 16.8245 55.0838 16.5915 54.9673 16.3147C54.8508 16.0379 54.7779 15.7612 54.7779 15.4698V11.2309C54.7051 11.2601 54.6031 11.2892 54.5157 11.2892C54.4283 11.2892 54.3263 11.3038 54.2244 11.3038H53.4523V9.93452H54.2826C54.4283 9.93452 54.6031 9.87625 54.8071 9.77428C55.011 9.67232 55.1567 9.55579 55.2878 9.41012L57.2835 7.03576H67.8011L70.0299 9.62862C70.0882 9.73059 70.2047 9.80342 70.3504 9.84712C70.4961 9.90539 70.6418 9.93452 70.7583 9.93452H71.5449V11.3038H70.6126V11.2601ZM68.3256 10.4443H56.4386V11.362H68.3256V10.4443ZM56.4386 12.2652V13.2411H67.4806C67.7429 13.2411 67.9468 13.1537 68.107 12.9644C68.2673 12.775 68.3547 12.5419 68.3547 12.2797H56.4386V12.2652ZM66.796 8.14282H58.3324L57.3418 9.38099H61.6683V8.55069H63.2853V9.38099H67.8594L66.8106 8.14282H66.796ZM69.724 6.48223C69.4472 6.48223 69.1413 6.42396 68.7771 6.322C68.413 6.22003 68.1362 6.0598 67.9322 5.87043L66.9562 5.011L66.1696 5.72476C65.9074 5.95783 65.5869 6.13263 65.2227 6.26373C64.8585 6.4094 64.4943 6.46766 64.1593 6.46766H62.5569V5.2732H63.8534C64.0719 5.2732 64.2904 5.24407 64.5235 5.15667C64.7566 5.08383 64.9314 4.99643 65.0479 4.8799L65.8928 4.15157L63.5766 2.14138H65.5869L66.898 3.27757L68.8937 1.58784H63.3727V0.349681H70.9185V1.60241L67.9614 4.1807L68.7334 4.86533C68.8645 4.9673 69.0685 5.06927 69.3307 5.15667C69.5929 5.24407 69.8114 5.28777 69.9862 5.28777H71.5158V6.48223H69.7095H69.724Z" fill="black"/>
<path id="Vector_4" d="M87.6565 5.73933C87.1758 5.73933 86.7824 5.60823 86.4328 5.3606C86.2726 5.2295 86.1269 5.06926 86.0104 4.8799C85.8938 4.7051 85.8064 4.4866 85.7482 4.2681L85.0926 1.67524H82.6599L81.9606 4.0496C81.815 4.574 81.5673 4.98187 81.2323 5.28776C80.8972 5.5791 80.4748 5.73933 79.9795 5.73933H79.3968V4.34093H79.7755C79.9358 4.34093 80.0815 4.28267 80.2126 4.1807C80.3437 4.07873 80.4311 3.94763 80.4602 3.80197L81.4362 0.291413H86.2871L87.1758 3.81654C87.2195 3.9622 87.3214 4.0933 87.4671 4.2244C87.6273 4.34093 87.773 4.41377 87.9187 4.41377H88.2974V5.76846H87.6273L87.6565 5.73933ZM86.7824 16.9265C86.3745 17.3635 85.8356 17.582 85.18 17.582H80.3728V5.98696H83.1406V3.20474H84.6265V5.98696H87.3214V10.9687C87.3214 11.3183 87.2632 11.6388 87.1321 11.9156C87.0155 12.1923 86.8407 12.4254 86.6222 12.6148C86.1997 12.9789 85.6462 13.1683 84.9324 13.1683H81.9024V16.1982H85.0489C85.3111 16.1982 85.5005 16.1253 85.6316 15.9651C85.7627 15.8049 85.821 15.6009 85.821 15.3533V13.5907H87.3214V15.4698C87.3214 16.0671 87.1466 16.5623 86.7679 16.9556L86.7824 16.9265ZM85.7919 7.38536H81.9169V8.87115H85.7919V7.38536ZM85.7919 10.1676H81.9169V11.7699H84.8887C85.1218 11.7699 85.3257 11.6971 85.5151 11.5514C85.7045 11.4057 85.7919 11.2309 85.7919 10.9979V10.1676ZM96.6737 17.5674C96.1055 17.5674 95.6394 17.4072 95.2606 17.1013C94.8528 16.7663 94.576 16.3147 94.4303 15.7175L92.7988 9.52665L90.701 16.0671C90.5408 16.5478 90.2932 16.9119 89.9436 17.1596C89.5939 17.4363 89.1569 17.5674 88.6179 17.5674H87.5982V16.169H88.2246C88.5014 16.169 88.7199 16.0816 88.9093 15.9068C89.0986 15.732 89.2298 15.5281 89.288 15.295L92.42 5.38973H94.0807L93.1047 8.43415H94.1244L95.8433 15.1348C95.9162 15.4116 96.0327 15.6446 96.2075 15.8486C96.3677 16.0525 96.6154 16.169 96.9213 16.169H97.504V17.5674H96.63H96.6737ZM95.4791 7.64756V3.5252H91.3712L90.6428 6.26373C90.5699 6.54049 90.4825 6.78813 90.3806 7.00663C90.2786 7.22512 90.1329 7.41449 89.9581 7.56016C89.6376 7.85149 89.2152 7.98259 88.6908 7.98259H87.977V6.59876H88.4431C88.5888 6.59876 88.7199 6.54049 88.8364 6.43853C88.9384 6.33656 89.0112 6.22003 89.0549 6.05979L90.6573 -0.0290527H92.2889L91.7499 2.06854H97.067V7.63299H95.4791V7.64756Z" fill="black"/>
<path id="Vector_5" d="M115.247 13.0226V17.6257H113.557V13.0226H105.676V11.6388H113.557V10.1967H106.711V3.99134H105.327V2.57838H106.099C106.303 2.57838 106.507 2.52011 106.725 2.41814C106.944 2.31618 107.104 2.15594 107.206 1.96658L108.298 0.0583496H110.09L109.435 1.20911H114.125L113.703 0.0583496H115.364L115.815 1.20911H122.822V2.60751H115.757V3.78741H122.4V5.011H115.757V6.29286H122.4V7.53103H115.757V8.81289H123.099V10.2113H115.218V11.6534H123.274V13.0372H115.218L115.247 13.0226ZM109.464 16.373C109.114 16.7954 108.706 17.1159 108.255 17.3344C107.832 17.5383 107.352 17.6403 106.813 17.6403H105.37V16.2856H106.609C106.885 16.2856 107.133 16.2419 107.381 16.1399C107.628 16.0379 107.847 15.8777 108.036 15.6446L109.551 13.7801H111.576L109.464 16.373ZM114.154 2.60751H108.735L108.386 3.17561V3.78741H114.154V2.60751ZM114.154 5.011H108.386V6.29286H114.154V5.011ZM114.154 7.53103H108.386V8.81289H114.154V7.53103ZM122.035 17.6403C121.511 17.6111 121.045 17.5092 120.652 17.3198C120.2 17.1159 119.792 16.7808 119.428 16.3293L117.476 13.7947H119.399L120.841 15.6009C121.001 15.8194 121.205 15.9942 121.467 16.1108C121.715 16.2273 121.992 16.2856 122.254 16.2856H123.565V17.6403H122.006H122.035Z" fill="black"/>
<path id="Vector_6" d="M148.126 16.4749C147.82 16.8245 147.426 17.1159 146.975 17.3198C146.509 17.5383 145.984 17.6403 145.372 17.6403H131.999V0.320557H148.941V14.2608C148.941 15.1348 148.664 15.8631 148.126 16.4749ZM147.368 1.60242H141.177V2.41815H146.552V3.58348H141.177V4.34094H145.94V6.68617C145.94 7.38537 145.736 7.92433 145.358 8.31763C145.154 8.52156 144.906 8.6818 144.6 8.79833C144.294 8.91486 143.959 8.97313 143.581 8.97313H141.162V9.74516H144.76L144.396 9.08966H145.795L146.144 9.59949C146.305 9.86169 146.334 10.1239 146.232 10.3861C146.159 10.5318 146.057 10.6629 145.911 10.7503C145.766 10.8377 145.591 10.8814 145.387 10.8814H144.629V11.7554H146.625V12.9789H144.629V13.9403C144.629 14.2025 144.571 14.4502 144.469 14.6687C144.367 14.8872 144.236 15.0765 144.047 15.2222C143.682 15.5572 143.216 15.732 142.648 15.732H141.104V14.5813H142.357C142.561 14.5813 142.736 14.5084 142.881 14.3482C143.027 14.188 143.1 14.0423 143.1 13.8966V13.0081H134.272V11.7845H143.1V10.9105H134.272V9.75973H139.691V8.9877H134.927V4.35551H139.691V3.59805H134.214V2.43272H139.691V1.61699H133.398V16.3584H145.066C145.751 16.3584 146.305 16.1399 146.712 15.7029C147.12 15.295 147.324 14.7852 147.324 14.188V1.60242H147.368ZM138.22 15.3824C137.899 15.3824 137.55 15.3387 137.2 15.2368C136.85 15.1348 136.574 15.0037 136.384 14.8143L134.986 13.5179H137.011L137.535 13.9695C137.652 14.0714 137.826 14.1588 138.03 14.2171C138.234 14.2754 138.424 14.3045 138.584 14.3045H140.478V15.397H138.205L138.22 15.3824ZM139.735 5.36061H136.428V6.17634H139.735V5.36061ZM139.735 7.1086H136.442V7.92433H139.735V7.1086ZM144.44 5.36061H141.177V6.17634H144.44V5.36061ZM141.177 7.1086V7.92433H143.347C143.58 7.92433 143.799 7.83693 144.018 7.6767C144.236 7.51647 144.367 7.3271 144.411 7.1086H141.191H141.177Z" fill="black"/>
<path id="Vector_7" d="M18.4033 43.7582C18.4033 45.0546 17.2233 45.6956 14.8634 45.6956H3.96703C1.66539 45.6956 0.5 45.0546 0.5 43.7582V38.5434H6.22497V42.9716H12.6637V24.4866H18.4033V43.7582Z" fill="black"/>
<path id="Vector_8" d="M93.8184 43.7582C93.8184 45.0546 92.6385 45.6956 90.2786 45.6956H79.3676C77.066 45.6956 75.9006 45.0546 75.9006 43.7582V38.5434H81.6255V42.9716H88.0643V24.4866H93.8184V43.7582Z" fill="black"/>
<path id="Vector_9" d="M104.088 45.6956H98.3344V24.4866H104.088V45.6956Z" fill="black"/>
<path id="Vector_10" d="M127.95 45.6954H122.254L121.103 41.675H113.907L112.756 45.6954H107.089V45.6371L114.533 24.4573H120.579L127.964 45.6954H127.95ZM120.287 38.9511L117.49 29.3808L114.664 38.9511H120.287Z" fill="black"/>
<path id="Vector_11" d="M149.801 45.6956H144.76L135.554 32.3525C135.802 33.008 135.918 33.5179 135.918 33.882V45.6956H130.31V24.4866H135.35L144.556 37.5674C144.309 36.9265 144.192 36.4021 144.192 36.0379V24.4866H149.786V45.6956H149.801Z" fill="black"/>
<path id="Vector_12" d="M42.8618 45.6956H37.064V36.1836H29.2851V45.6956H23.5455V24.4866H29.2851V33.2265H37.064V24.4866H42.8618V45.6956Z" fill="black"/>
<path id="Vector_13" d="M66.7378 43.7582C66.7378 45.0546 65.5578 45.6956 63.1979 45.6956H50.9904C48.6597 45.6956 47.5089 45.0546 47.5089 43.7582V24.4866H53.263V42.9716H60.9982V24.4866H66.7378V43.7582Z" fill="black"/>
<path id="Vector_14" d="M2.13144 60.6992C1.62158 60.4516 1.2137 60.102 0.936918 59.6359C0.660139 59.1843 0.514465 58.6453 0.514465 58.0481V55.8194C0.514465 55.2222 0.660139 54.6832 0.936918 54.2316C1.22827 53.7655 1.62158 53.4159 2.13144 53.1683C2.6413 52.9206 3.25313 52.7896 3.92322 52.7896C4.49135 52.7896 5.01578 52.8915 5.48193 53.0809C5.94809 53.2702 6.35597 53.547 6.67645 53.882C6.99693 54.2316 7.21545 54.6395 7.31742 55.0911H6.3414C6.23943 54.7852 6.06463 54.5084 5.81698 54.2753C5.56934 54.0423 5.27799 53.8529 4.95751 53.7218C4.62246 53.5907 4.28741 53.5324 3.93779 53.5324C3.45707 53.5324 3.02005 53.6344 2.65587 53.8238C2.29168 54.0131 2.00033 54.2753 1.79639 54.6249C1.59245 54.9745 1.49048 55.3678 1.49048 55.834V58.0627C1.49048 58.5142 1.59245 58.9075 1.79639 59.2571C2.00033 59.6067 2.29168 59.8689 2.65587 60.0583C3.02005 60.2477 3.45707 60.3496 3.93779 60.3496C4.28741 60.3496 4.63702 60.2914 4.95751 60.1603C5.29256 60.0437 5.56934 59.8544 5.81698 59.6213C6.06463 59.3882 6.23943 59.1115 6.3414 58.791H7.31742C7.20088 59.2426 6.98237 59.6504 6.66189 60C6.3414 60.3496 5.94809 60.6118 5.46736 60.8158C5.00121 61.0051 4.47678 61.1071 3.92322 61.1071C2.84524 61.0925 2.13144 60.7284 2.13144 60.7284V60.6992Z" fill="black"/>
<path id="Vector_15" d="M18.0536 60.9906H19.0442L15.752 52.877H14.6886L11.3964 60.9906H12.3869L13.159 59.0241H17.3107L18.0828 60.9906H18.0536ZM13.4358 58.2812L15.213 53.7218L16.9902 58.2812H13.4358Z" fill="black"/>
<path id="Vector_16" d="M23.3707 52.877H29.6638V53.6199H23.3707V52.877ZM26.0803 53.212H26.9689V60.9906H26.0803V53.212Z" fill="black"/>
<path id="Vector_17" d="M35.316 52.877H34.6459V60.9906H35.316H35.6219H40.9972V60.2477H35.6219V57.3343H40.2543V56.5769H35.6219V53.6199H40.9972V52.877H35.6219H35.316Z" fill="black"/>
<path id="Vector_18" d="M50.8739 57.2614C51.2964 57.0721 51.6168 56.7953 51.8499 56.4311C52.083 56.0815 52.1995 55.6737 52.1995 55.2075C52.1995 54.7414 52.083 54.3335 51.8499 53.9694C51.6168 53.6198 51.2964 53.343 50.8739 53.1536C50.4515 52.9643 49.9707 52.8623 49.4172 52.8623H45.6442V60.9759H46.5911V57.5528H49.4317L51.4712 60.9759H52.5929L50.4077 57.4217C50.568 57.378 50.7282 57.3197 50.8885 57.2469L50.8739 57.2614ZM46.5911 53.6052H49.4754C49.8396 53.6052 50.1455 53.678 50.4077 53.8091C50.6845 53.9402 50.8885 54.1296 51.0341 54.3772C51.1798 54.6249 51.2527 54.9016 51.2527 55.2075C51.2527 55.528 51.1798 55.8048 51.0341 56.0524C50.8885 56.3 50.6845 56.4748 50.4077 56.6205C50.1455 56.7516 49.8251 56.8244 49.4754 56.8244H46.5911V53.6343V53.6052Z" fill="black"/>
<path id="Vector_19" d="M74.0214 52.877V59.0095L69.4327 52.877H68.2964V60.9906H69.4327V54.6978L74.0068 60.9906H75.1577V52.877H74.0214Z" fill="black"/>
<path id="Vector_20" d="M86.2725 56.8391V58.0335C86.2725 58.7036 86.156 59.2717 85.9083 59.7233C85.6753 60.1748 85.3111 60.5099 84.8304 60.7284C84.3496 60.9614 83.7524 61.0634 83.0386 61.0634C82.3248 61.0634 81.6984 60.9614 81.2177 60.7429C80.7369 60.5244 80.3728 60.204 80.1251 59.7961C79.892 59.3737 79.7609 58.8347 79.7609 58.2083V55.8194C79.7609 55.1348 79.8775 54.5812 80.1251 54.1297C80.3582 53.6781 80.7224 53.3431 81.2031 53.1246C81.6838 52.9061 82.2811 52.7896 82.9949 52.7896C83.5921 52.7896 84.102 52.8769 84.5244 53.0517C84.9469 53.2265 85.3111 53.5033 85.5879 53.8529C85.8646 54.2025 86.054 54.6541 86.1706 55.193H85.18C85.0634 54.8289 84.9178 54.5084 84.7138 54.2753C84.5099 54.0277 84.2768 53.8529 83.9855 53.7218C83.6941 53.6053 83.3591 53.547 82.9803 53.547C82.4705 53.547 82.0334 53.6344 81.6984 53.8092C81.3633 53.9694 81.1011 54.2316 80.9263 54.5667C80.7515 54.9017 80.6641 55.3241 80.6641 55.834V58.2229C80.6641 58.689 80.7515 59.0823 80.9263 59.4028C81.1011 59.7087 81.3633 59.9418 81.713 60.102C82.0626 60.2622 82.4996 60.3351 83.024 60.3351C83.5484 60.3351 83.9563 60.2622 84.2914 60.0874C84.6119 59.9272 84.8741 59.6796 85.0343 59.3445C85.2091 59.0095 85.282 58.5871 85.282 58.0627V57.5965H83.0531V56.8391H86.2434H86.2725Z" fill="black"/>
<path id="Vector_21" d="M114.125 57.2614C114.548 57.0721 114.868 56.7953 115.101 56.4311C115.334 56.0815 115.451 55.6737 115.451 55.2075C115.451 54.7414 115.334 54.3335 115.101 53.9694C114.868 53.6198 114.548 53.343 114.14 53.1536C113.717 52.9643 113.237 52.8623 112.683 52.8623H108.91V60.9759H109.857V57.5528H112.698L114.723 60.9759H115.844L113.645 57.4217C113.819 57.378 113.98 57.3197 114.125 57.2469V57.2614ZM109.843 53.6052H112.727C113.076 53.6052 113.397 53.678 113.659 53.8091C113.921 53.9402 114.14 54.1296 114.271 54.3772C114.417 54.6249 114.49 54.9016 114.49 55.2075C114.49 55.528 114.417 55.8048 114.271 56.0524C114.125 56.3 113.921 56.4748 113.645 56.6205C113.382 56.7516 113.062 56.8244 112.712 56.8244H109.828V53.6343L109.843 53.6052Z" fill="black"/>
<path id="Vector_22" d="M148.708 57.4362C148.868 57.3925 149.029 57.3343 149.189 57.2614C149.611 57.0721 149.932 56.7953 150.165 56.4311C150.398 56.0815 150.515 55.6737 150.515 55.2075C150.515 54.7414 150.398 54.3335 150.165 53.9694C149.932 53.6198 149.611 53.343 149.203 53.1536C148.796 52.9643 148.3 52.8623 147.747 52.8623H143.974V60.9759H144.921V57.5528H147.761C147.761 57.5528 148.344 57.5528 148.723 57.4362H148.708ZM144.906 53.6052H147.79C148.155 53.6052 148.461 53.678 148.737 53.8091C149 53.9402 149.218 54.1296 149.364 54.3772C149.509 54.6249 149.582 54.9016 149.582 55.2075C149.582 55.528 149.509 55.8048 149.349 56.0524C149.203 56.3 149 56.4748 148.737 56.6205C148.461 56.7516 148.155 56.8244 147.805 56.8244H144.921V53.6343L144.906 53.6052Z" fill="black"/>
<path id="Vector_23" d="M103.986 56.8391V58.0335C103.986 58.7036 103.87 59.2717 103.637 59.7233C103.389 60.1748 103.04 60.5099 102.559 60.7284C102.078 60.9614 101.481 61.0634 100.767 61.0634C100.053 61.0634 99.4414 60.9614 98.9607 60.7429C98.48 60.5244 98.1158 60.204 97.8682 59.7961C97.6351 59.3737 97.504 58.8347 97.504 58.2083V55.8194C97.504 55.1348 97.6205 54.5812 97.8682 54.1297C98.1012 53.6781 98.4654 53.3431 98.9316 53.1246C99.4123 52.9061 100.01 52.7896 100.723 52.7896C101.321 52.7896 101.83 52.8769 102.253 53.0517C102.675 53.2265 103.04 53.5033 103.302 53.8529C103.579 54.2025 103.768 54.6541 103.899 55.193H102.908C102.792 54.8289 102.646 54.5084 102.457 54.2753C102.253 54.0277 102.02 53.8529 101.729 53.7218C101.437 53.6053 101.102 53.547 100.723 53.547C100.214 53.547 99.7765 53.6344 99.4414 53.8092C99.1064 53.9694 98.8442 54.2316 98.6694 54.5667C98.4946 54.9017 98.4071 55.3241 98.4071 55.834V58.2229C98.4071 58.689 98.4946 59.0823 98.6694 59.4028C98.8442 59.7087 99.1064 59.9418 99.4414 60.102C99.791 60.2622 100.228 60.3351 100.752 60.3351C101.277 60.3351 101.685 60.2622 102.02 60.0874C102.355 59.9272 102.603 59.6796 102.763 59.3445C102.923 59.0095 103.01 58.5871 103.01 58.0627V57.5965H100.782V56.8391H103.972H103.986Z" fill="black"/>
<path id="Vector_24" d="M127.353 56.941C127.353 58.2083 127.061 59.2134 126.464 59.9417C125.867 60.67 125.051 61.0342 124.002 61.0342C122.953 61.0342 122.094 60.67 121.511 59.9562C120.928 59.2425 120.637 58.2374 120.637 56.9264C120.637 55.6154 120.928 54.6394 121.511 53.9257C122.094 53.2119 122.924 52.8623 124.017 52.8623C125.109 52.8623 125.881 53.2265 126.478 53.9548C127.076 54.6831 127.367 55.6737 127.367 56.9555L127.353 56.941ZM121.526 56.941C121.526 58.0189 121.73 58.8346 122.152 59.3882C122.574 59.9417 123.186 60.2184 123.987 60.2184C124.789 60.2184 125.4 59.9417 125.823 59.3882C126.231 58.8346 126.449 58.0189 126.449 56.941C126.449 55.863 126.245 55.0619 125.838 54.5083C125.43 53.9548 124.818 53.678 124.017 53.678C123.215 53.678 122.589 53.9548 122.167 54.5083C121.744 55.0619 121.54 55.8776 121.54 56.941H121.526Z" fill="black"/>
<path id="Vector_25" d="M138.89 52.8623V58.0335C138.89 58.9512 138.598 59.6649 138.001 60.1893C137.419 60.7137 136.603 60.9759 135.568 60.9759C134.534 60.9759 133.733 60.7137 133.165 60.1893C132.597 59.6649 132.32 58.9366 132.32 58.0189V52.8623H133.311V58.0772C133.311 58.7472 133.5 59.2571 133.893 59.6212C134.287 59.9854 134.855 60.1602 135.612 60.1602C136.37 60.1602 136.894 59.9854 137.287 59.6212C137.681 59.2571 137.87 58.7472 137.87 58.0772V52.8623H138.875H138.89Z" fill="black"/>
<path id="Vector_26" d="M60.9982 60.9906H59.8619V52.877H60.9982V60.9906Z" fill="black"/>
</g>
<defs>
<clipPath id="clip0_1455_178">
<rect width="150" height="61.0778" fill="white" transform="translate(0.5)"/>
</clipPath>
</defs>
</svg>
