<svg width="754" height="184" viewBox="0 0 754 184" fill="none" xmlns="http://www.w3.org/2000/svg">
<path d="M89.864 97.2054C89.864 103.667 83.9197 106.898 72.1185 106.898H17.3959C5.76948 106.898 0 103.667 0 97.2054V71.0099H28.6726V93.276H60.9292V0.631348H89.7766V97.2054H89.864Z" fill="#FCF4B7"/>
<path d="M468.29 97.2054C468.29 103.667 462.346 106.898 450.544 106.898H395.822C384.195 106.898 378.426 103.667 378.426 97.2054V71.0099H407.098V93.276H439.355V0.631348H468.202V97.2054H468.29Z" fill="#FCF4B7"/>
<path d="M519.865 106.898H491.018V0.631348H519.865V106.898Z" fill="#FCF4B7"/>
<path d="M639.538 106.898H610.953L605.184 86.7275H569.081L563.311 106.898H534.814V106.636L572.14 0.457031H602.474L639.538 106.898ZM601.075 73.1059L587.001 25.0808L572.84 73.1059H601.075Z" fill="#FCF4B7"/>
<path d="M749.246 106.898H723.983L677.739 40.0119C678.963 43.2427 679.575 45.8622 679.575 47.6959V106.898H651.427V0.631348H676.69L722.934 66.2074C721.71 62.9766 721.098 60.3571 721.098 58.5234V0.631348H749.159V106.898H749.246Z" fill="#FCF4B7"/>
<path d="M212.509 106.898H183.4V59.2219H144.324V106.898H115.477V0.631348H144.324V44.4651H183.4V0.631348H212.509V106.898Z" fill="#FCF4B7"/>
<path d="M332.357 97.2054C332.357 103.667 326.413 106.898 314.612 106.898H253.333C241.619 106.898 235.85 103.667 235.85 97.2054V0.631348H264.697V93.276H303.51V0.631348H332.357V97.2054Z" fill="#FCF4B7"/>
<path d="M8.12973 182.079C5.50723 180.857 3.49666 179.023 2.09799 176.753C0.699331 174.482 0 171.775 0 168.807V157.63C0 154.574 0.699331 151.954 2.09799 149.684C3.49666 147.414 5.50723 145.58 8.12973 144.358C10.7522 143.135 13.7244 142.437 17.1336 142.437C19.9309 142.437 22.5534 142.96 24.9137 143.834C27.2739 144.794 29.2845 146.104 30.858 147.85C32.4315 149.597 33.5679 151.605 34.0924 153.875H29.1971C28.6726 152.391 27.7984 150.994 26.5746 149.859C25.3508 148.723 23.8647 147.763 22.2912 147.152C20.6303 146.54 18.8819 146.191 17.1336 146.191C14.686 146.191 12.5005 146.628 10.6648 147.588C8.82906 148.549 7.34298 149.859 6.3814 151.605C5.3324 153.351 4.89532 155.36 4.89532 157.63V168.807C4.89532 171.077 5.41982 173.085 6.3814 174.832C7.43039 176.578 8.82906 177.888 10.6648 178.848C12.5005 179.809 14.686 180.245 17.1336 180.245C18.8819 180.245 20.6303 179.896 22.2912 179.285C23.9521 178.674 25.3508 177.8 26.5746 176.578C27.7984 175.443 28.6726 174.046 29.1971 172.387H34.0924C33.5679 174.657 32.4315 176.753 30.858 178.412C29.2845 180.158 27.2739 181.555 24.9137 182.516C22.5534 183.476 19.9309 184 17.1336 183.913C11.7138 183.913 8.12973 181.992 8.12973 181.992V182.079Z" fill="#FCF4B7"/>
<path d="M88.1157 183.563H93.0111L76.4894 142.873H71.157L54.6353 183.563H59.5306L63.3769 173.696H84.182L88.0283 183.563H88.1157ZM64.9504 169.942L73.8669 147.064L82.7833 169.942H64.9504Z" fill="#FCF4B7"/>
<path d="M114.778 142.873H146.423V146.628H114.778V142.873ZM128.327 144.532H132.786V183.563H128.327V144.532Z" fill="#FCF4B7"/>
<path d="M174.658 142.873H171.336V183.563H174.658H176.231H203.243V179.809H176.231V165.227H199.484V161.472H176.231V146.628H203.243V142.873H176.231H174.658Z" fill="#FCF4B7"/>
<path d="M252.808 164.877C254.906 163.917 256.567 162.52 257.704 160.773C258.84 159.027 259.452 156.931 259.452 154.661C259.452 152.391 258.84 150.295 257.704 148.461C256.567 146.715 254.906 145.318 252.808 144.357C250.71 143.397 248.263 142.873 245.553 142.873H226.583V183.563H231.304V166.362H245.553L255.781 183.563H261.375L250.361 165.75C251.235 165.488 252.022 165.227 252.808 164.877ZM231.304 146.54H245.815C247.651 146.54 249.224 146.89 250.536 147.501C251.934 148.199 252.896 149.073 253.683 150.295C254.382 151.518 254.732 152.915 254.732 154.486C254.732 156.058 254.382 157.455 253.595 158.678C252.896 159.9 251.847 160.861 250.448 161.472C249.137 162.17 247.563 162.432 245.728 162.432H231.217V146.453L231.304 146.54Z" fill="#FCF4B7"/>
<path d="M368.985 142.873V173.609L345.907 142.873H340.225V183.563H345.907V152.041L368.81 183.563H374.667V142.873H368.985Z" fill="#FCF4B7"/>
<path d="M430.438 162.782V168.807C430.438 172.212 429.826 175.006 428.603 177.277C427.379 179.547 425.63 181.206 423.183 182.341C420.823 183.476 417.763 184 414.179 184C410.595 184 407.535 183.476 405.088 182.428C402.64 181.38 400.892 179.721 399.668 177.626C398.444 175.53 397.832 172.823 397.832 169.68V157.63C397.832 154.225 398.444 151.43 399.58 149.16C400.804 146.89 402.553 145.231 405 144.096C407.36 142.96 410.42 142.437 414.004 142.437C416.976 142.437 419.511 142.873 421.697 143.746C423.882 144.619 425.63 146.017 427.029 147.763C428.428 149.509 429.389 151.78 430.001 154.486H425.106C424.581 152.653 423.795 151.081 422.833 149.859C421.872 148.636 420.648 147.676 419.162 147.064C417.676 146.453 416.015 146.191 414.091 146.191C411.469 146.191 409.371 146.628 407.623 147.501C405.874 148.374 404.651 149.597 403.776 151.256C402.902 152.915 402.465 155.098 402.465 157.63V169.68C402.465 172.037 402.902 173.958 403.776 175.53C404.651 177.102 405.962 178.237 407.71 179.023C409.458 179.809 411.644 180.158 414.266 180.158C416.889 180.158 418.899 179.721 420.56 178.936C422.221 178.15 423.445 176.927 424.319 175.181C425.193 173.522 425.543 171.339 425.543 168.719V166.362H414.354V162.607H430.351L430.438 162.782Z" fill="#FCF4B7"/>
<path d="M570.13 164.877C572.228 163.917 573.889 162.52 575.025 160.773C576.161 159.027 576.773 156.931 576.773 154.661C576.773 152.391 576.161 150.295 575.025 148.461C573.889 146.715 572.228 145.318 570.13 144.357C568.032 143.397 565.584 142.873 562.874 142.873H543.905V183.563H548.625V166.362H562.874L573.102 183.563H578.784L567.769 165.75C568.644 165.488 569.43 165.227 570.217 164.877H570.13ZM548.625 146.54H563.136C564.885 146.54 566.458 146.89 567.857 147.501C569.168 148.199 570.217 149.073 571.004 150.295C571.703 151.518 572.14 152.915 572.14 154.486C572.14 156.058 571.703 157.455 571.004 158.678C570.305 159.9 569.256 160.861 567.857 161.472C566.546 162.17 564.972 162.432 563.224 162.432H548.713V146.453L548.625 146.54Z" fill="#FCF4B7"/>
<path d="M743.651 165.75C744.525 165.488 745.312 165.227 746.099 164.877C748.197 163.917 749.858 162.52 750.994 160.773C752.131 159.027 752.742 156.931 752.742 154.661C752.742 152.391 752.131 150.295 750.994 148.461C749.858 146.715 748.197 145.318 746.099 144.357C744.001 143.397 741.553 142.873 738.843 142.873H719.874V183.563H724.594V166.362H738.843C738.843 166.362 741.728 166.362 743.739 165.75H743.651ZM724.594 146.628H739.106C740.941 146.628 742.427 146.977 743.826 147.588C745.225 148.287 746.186 149.16 746.973 150.382C747.672 151.605 748.022 153.002 748.022 154.574C748.022 156.145 747.672 157.542 746.886 158.765C746.186 159.987 745.137 160.948 743.826 161.559C742.427 162.258 740.941 162.52 739.106 162.52H724.594V146.54V146.628Z" fill="#FCF4B7"/>
<path d="M519.254 162.782V168.807C519.254 172.212 518.642 175.006 517.505 177.277C516.281 179.547 514.533 181.206 512.085 182.341C509.725 183.476 506.666 184 503.081 184C499.497 184 496.438 183.476 493.99 182.428C491.543 181.38 489.794 179.721 488.57 177.626C487.347 175.53 486.735 172.823 486.735 169.68V157.63C486.735 154.225 487.347 151.43 488.57 149.16C489.794 146.89 491.543 145.231 493.99 144.096C496.35 142.96 499.41 142.437 502.994 142.437C505.966 142.437 508.501 142.873 510.687 143.746C512.872 144.619 514.62 146.017 516.019 147.763C517.418 149.509 518.379 151.78 518.991 154.486H514.009C513.484 152.653 512.697 151.081 511.736 149.859C510.774 148.636 509.55 147.676 508.064 147.064C506.578 146.453 504.917 146.191 502.994 146.191C500.372 146.191 498.274 146.628 496.525 147.501C494.777 148.374 493.553 149.597 492.679 151.256C491.805 152.915 491.368 155.098 491.368 157.63V169.68C491.368 172.037 491.805 173.958 492.679 175.53C493.553 177.102 494.864 178.237 496.613 179.023C498.361 179.809 500.546 180.158 503.169 180.158C505.791 180.158 507.889 179.721 509.463 178.936C511.124 178.15 512.348 176.927 513.222 175.181C514.009 173.522 514.446 171.339 514.446 168.719V166.362H503.256V162.607H519.254V162.782Z" fill="#FCF4B7"/>
<path d="M636.479 163.306C636.479 169.68 634.993 174.657 632.021 178.324C629.048 181.992 624.94 183.825 619.607 183.825C614.275 183.825 609.992 181.992 607.107 178.412C604.135 174.832 602.736 169.767 602.736 163.218C602.736 156.669 604.222 151.78 607.194 148.199C610.166 144.619 614.275 142.873 619.695 142.873C625.115 142.873 629.048 144.707 632.021 148.287C634.993 151.954 636.479 156.931 636.479 163.306ZM607.282 163.306C607.282 168.719 608.331 172.823 610.429 175.53C612.527 178.324 615.586 179.721 619.607 179.721C623.629 179.721 626.776 178.324 628.786 175.53C630.884 172.736 631.933 168.632 631.933 163.218C631.933 157.804 630.884 153.788 628.874 150.994C626.776 148.199 623.803 146.802 619.695 146.802C615.586 146.802 612.527 148.199 610.429 150.994C608.331 153.788 607.282 157.804 607.282 163.131V163.306Z" fill="#FCF4B7"/>
<path d="M694.436 142.873V168.807C694.436 173.347 692.95 176.927 689.978 179.634C687.006 182.254 682.897 183.563 677.739 183.563C672.582 183.563 668.561 182.254 665.676 179.634C662.791 177.015 661.393 173.347 661.393 168.807V142.96H666.375V169.156C666.375 172.474 667.337 175.094 669.347 176.84C671.271 178.674 674.155 179.547 678.002 179.547C681.848 179.547 684.47 178.674 686.394 176.84C688.404 175.006 689.366 172.474 689.366 169.069V142.96H694.349L694.436 142.873Z" fill="#FCF4B7"/>
<path d="M303.597 183.563H297.915V142.873H303.597V183.563Z" fill="#FCF4B7"/>
</svg>
