<svg width="164" height="40" viewBox="0 0 164 40" fill="none" xmlns="http://www.w3.org/2000/svg">
<g clip-path="url(#clip0_1455_31)">
<path d="M19.865 21.1316C19.865 22.5362 18.5774 23.2386 16.0212 23.2386H4.16805C1.64973 23.2386 0.400032 22.5362 0.400032 21.1316V15.4369H6.61063V20.2774H13.5976V0.137207H19.846V21.1316H19.865Z" fill="black"/>
<path d="M101.834 21.1316C101.834 22.5362 100.546 23.2386 97.9898 23.2386H86.1366C83.6183 23.2386 82.3686 22.5362 82.3686 21.1316V15.4369H88.5792V20.2774H95.5661V0.137207H101.815V21.1316H101.834Z" fill="black"/>
<path d="M113.005 23.2386H106.757V0.137207H113.005V23.2386Z" fill="black"/>
<path d="M138.927 23.2385H132.735L131.485 18.8536H123.665L122.416 23.2385H116.243V23.1815L124.328 0.0991211H130.898L138.927 23.2385ZM130.595 15.8923L127.547 5.45211L124.479 15.8923H130.595Z" fill="black"/>
<path d="M162.69 23.2386H157.218L147.201 8.69819C147.466 9.40054 147.599 9.97001 147.599 10.3686V23.2386H141.502V0.137207H146.974L156.99 14.3929C156.725 13.6905 156.593 13.1211 156.593 12.7224V0.137207H162.671V23.2386H162.69Z" fill="black"/>
<path d="M46.4304 23.2386H40.1251V12.8743H31.6613V23.2386H25.4128V0.137207H31.6613V9.66629H40.1251V0.137207H46.4304V23.2386Z" fill="black"/>
<path d="M72.39 21.1316C72.39 22.5362 71.1024 23.2386 68.5462 23.2386H55.2729C52.7357 23.2386 51.486 22.5362 51.486 21.1316V0.137207H57.7345V20.2774H66.1415V0.137207H72.39V21.1316Z" fill="black"/>
<path d="M2.16096 39.5823C1.59292 39.3165 1.15742 38.9179 0.854466 38.4244C0.55151 37.9308 0.400032 37.3424 0.400032 36.697V34.2673C0.400032 33.6029 0.55151 33.0334 0.854466 32.5399C1.15742 32.0463 1.59292 31.6477 2.16096 31.382C2.72901 31.1162 3.37279 30.9644 4.11124 30.9644C4.71715 30.9644 5.2852 31.0782 5.79644 31.2681C6.30767 31.4769 6.74317 31.7616 7.084 32.1413C7.42482 32.5209 7.67098 32.9575 7.78458 33.451H6.72424C6.61063 33.1283 6.42128 32.8246 6.1562 32.5778C5.89111 32.3311 5.56922 32.1223 5.22839 31.9894C4.86863 31.8565 4.48994 31.7806 4.11124 31.7806C3.58107 31.7806 3.1077 31.8755 2.71007 32.0843C2.31244 32.2931 1.99055 32.5778 1.78227 32.9575C1.55505 33.3371 1.46038 33.7737 1.46038 34.2673V36.697C1.46038 37.1905 1.57399 37.6271 1.78227 38.0068C2.00949 38.3864 2.31244 38.6711 2.71007 38.88C3.1077 39.0888 3.58107 39.1837 4.11124 39.1837C4.48994 39.1837 4.86863 39.1077 5.22839 38.9749C5.58815 38.842 5.89111 38.6522 6.1562 38.3864C6.42128 38.1396 6.61063 37.8359 6.72424 37.4753H7.78458C7.67098 37.9688 7.42482 38.4244 7.084 38.785C6.74317 39.1647 6.30767 39.4684 5.79644 39.6772C5.2852 39.886 4.71715 39.9999 4.11124 39.9809C2.93729 39.9809 2.16096 39.5633 2.16096 39.5633V39.5823Z" fill="black"/>
<path d="M19.4863 39.9053H20.5466L16.9679 31.0596H15.8129L12.2343 39.9053H13.2946L14.1277 37.7603H18.6342L19.4673 39.9053H19.4863ZM14.4686 36.9441L16.3999 31.9707L18.3312 36.9441H14.4686Z" fill="black"/>
<path d="M25.2614 31.0596H32.1157V31.8758H25.2614V31.0596ZM28.1963 31.4202H29.1619V39.9053H28.1963V31.4202Z" fill="black"/>
<path d="M38.2317 31.0596H37.5122V39.9053H38.2317H38.5725H44.4233V39.0891H38.5725V35.919H43.6091V35.1028H38.5725V31.8758H44.4233V31.0596H38.5725H38.2317Z" fill="black"/>
<path d="M55.1593 35.8431C55.6138 35.6343 55.9735 35.3306 56.2197 34.9509C56.4658 34.5713 56.5984 34.1157 56.5984 33.6222C56.5984 33.1286 56.4658 32.6731 56.2197 32.2744C55.9735 31.8948 55.6138 31.5911 55.1593 31.3823C54.7049 31.1735 54.1747 31.0596 53.5877 31.0596H49.4789V39.9053H50.5014V36.1658H53.5877L55.8031 39.9053H57.0149L54.6292 36.0329C54.8185 35.976 54.9889 35.919 55.1593 35.8431ZM50.5014 31.8568H53.6446C54.0422 31.8568 54.383 31.9328 54.667 32.0656C54.97 32.2175 55.1783 32.4073 55.3487 32.6731C55.5002 32.9388 55.5759 33.2425 55.5759 33.5842C55.5759 33.9259 55.5002 34.2296 55.3297 34.4954C55.1783 34.7611 54.951 34.9699 54.6481 35.1028C54.3641 35.2546 54.0232 35.3116 53.6256 35.3116H50.4825V31.8378L50.5014 31.8568Z" fill="black"/>
<path d="M80.3236 31.0596V37.7413L75.3248 31.0596H74.0941V39.9053H75.3248V33.0527L80.2857 39.9053H81.5544V31.0596H80.3236Z" fill="black"/>
<path d="M93.6347 35.3872V36.697C93.6347 37.4373 93.5022 38.0447 93.2371 38.5383C92.972 39.0318 92.5933 39.3925 92.0632 39.6392C91.5519 39.886 90.8892 39.9999 90.1129 39.9999C89.3366 39.9999 88.6738 39.886 88.1437 39.6582C87.6135 39.4304 87.2348 39.0698 86.9697 38.6142C86.7046 38.1586 86.5721 37.5702 86.5721 36.8868V34.2673C86.5721 33.527 86.7046 32.9195 86.9508 32.426C87.2159 31.9325 87.5946 31.5718 88.1247 31.325C88.636 31.0782 89.2987 30.9644 90.075 30.9644C90.7188 30.9644 91.2679 31.0593 91.7413 31.2491C92.2146 31.4389 92.5933 31.7426 92.8963 32.1223C93.1992 32.5019 93.4075 32.9955 93.5401 33.5839H92.4797C92.3661 33.1853 92.1957 32.8436 91.9874 32.5778C91.7791 32.3121 91.514 32.1033 91.1922 31.9704C90.8703 31.8375 90.5105 31.7806 90.0939 31.7806C89.5259 31.7806 89.0715 31.8755 88.6928 32.0653C88.3141 32.2551 88.049 32.5209 87.8596 32.8816C87.6703 33.2422 87.5756 33.7168 87.5756 34.2673V36.8868C87.5756 37.3993 87.6703 37.8169 87.8596 38.1586C88.049 38.5003 88.333 38.7471 88.7117 38.9179C89.0904 39.0888 89.5638 39.1647 90.1318 39.1647C90.6999 39.1647 91.1354 39.0698 91.4951 38.8989C91.8549 38.7281 92.12 38.4623 92.3093 38.0827C92.4987 37.722 92.5744 37.2475 92.5744 36.678V36.1655H90.1507V35.3493H93.6158L93.6347 35.3872Z" fill="black"/>
<path d="M123.892 35.8431C124.347 35.6343 124.707 35.3306 124.953 34.9509C125.199 34.5713 125.332 34.1157 125.332 33.6222C125.332 33.1286 125.199 32.6731 124.953 32.2744C124.707 31.8948 124.347 31.5911 123.892 31.3823C123.438 31.1735 122.908 31.0596 122.321 31.0596H118.212V39.9053H119.235V36.1658H122.321L124.536 39.9053H125.767L123.381 36.0329C123.571 35.976 123.741 35.919 123.911 35.8431H123.892ZM119.235 31.8568H122.378C122.756 31.8568 123.097 31.9328 123.4 32.0656C123.684 32.2175 123.911 32.4073 124.082 32.6731C124.233 32.9388 124.328 33.2425 124.328 33.5842C124.328 33.9259 124.233 34.2296 124.082 34.4954C123.93 34.7611 123.703 34.9699 123.4 35.1028C123.116 35.2546 122.775 35.3116 122.397 35.3116H119.253V31.8378L119.235 31.8568Z" fill="black"/>
<path d="M161.478 36.0329C161.667 35.976 161.838 35.919 162.008 35.8431C162.463 35.6343 162.822 35.3306 163.068 34.9509C163.315 34.5713 163.447 34.1157 163.447 33.6222C163.447 33.1286 163.315 32.6731 163.068 32.2744C162.822 31.8948 162.463 31.5911 162.008 31.3823C161.554 31.1735 161.023 31.0596 160.437 31.0596H156.328V39.9053H157.35V36.1658H160.437C160.437 36.1658 161.061 36.1658 161.497 36.0329H161.478ZM157.35 31.8758H160.493C160.891 31.8758 161.213 31.9517 161.516 32.0846C161.819 32.2365 162.027 32.4263 162.197 32.692C162.349 32.9578 162.425 33.2615 162.425 33.6032C162.425 33.9449 162.349 34.2486 162.179 34.5143C162.027 34.7801 161.8 34.9889 161.516 35.1218C161.213 35.2736 160.891 35.3306 160.493 35.3306H157.35V31.8568V31.8758Z" fill="black"/>
<path d="M112.872 35.3872V36.697C112.872 37.4373 112.74 38.0447 112.494 38.5383C112.229 39.0318 111.85 39.3925 111.32 39.6392C110.809 39.886 110.146 39.9999 109.37 39.9999C108.593 39.9999 107.93 39.886 107.4 39.6582C106.87 39.4304 106.491 39.0698 106.226 38.6142C105.961 38.1586 105.829 37.5702 105.829 36.8868V34.2673C105.829 33.527 105.961 32.9195 106.226 32.426C106.491 31.9325 106.87 31.5718 107.4 31.325C107.912 31.0782 108.574 30.9644 109.351 30.9644C109.994 30.9644 110.543 31.0593 111.017 31.2491C111.49 31.4389 111.869 31.7426 112.172 32.1223C112.475 32.5019 112.683 32.9955 112.816 33.5839H111.736C111.623 33.1853 111.452 32.8436 111.244 32.5778C111.036 32.3121 110.771 32.1033 110.449 31.9704C110.127 31.8375 109.767 31.7806 109.351 31.7806C108.783 31.7806 108.328 31.8755 107.949 32.0653C107.571 32.2551 107.306 32.5209 107.116 32.8816C106.927 33.2422 106.832 33.7168 106.832 34.2673V36.8868C106.832 37.3993 106.927 37.8169 107.116 38.1586C107.306 38.5003 107.59 38.7471 107.968 38.9179C108.347 39.0888 108.82 39.1647 109.388 39.1647C109.957 39.1647 110.411 39.0698 110.752 38.8989C111.112 38.7281 111.377 38.4623 111.566 38.0827C111.736 37.722 111.831 37.2475 111.831 36.678V36.1655H109.407V35.3493H112.872V35.3872Z" fill="black"/>
<path d="M138.264 35.5014C138.264 36.8871 137.942 37.9691 137.298 38.7664C136.655 39.5636 135.765 39.9622 134.61 39.9622C133.455 39.9622 132.527 39.5636 131.902 38.7853C131.258 38.0071 130.955 36.9061 130.955 35.4824C130.955 34.0588 131.277 32.9958 131.921 32.2175C132.565 31.4392 133.455 31.0596 134.628 31.0596C135.802 31.0596 136.655 31.4582 137.298 32.2365C137.942 33.0337 138.264 34.1157 138.264 35.5014ZM131.94 35.5014C131.94 36.6783 132.167 37.5705 132.621 38.1589C133.076 38.7664 133.739 39.0701 134.61 39.0701C135.481 39.0701 136.162 38.7664 136.598 38.1589C137.052 37.5515 137.279 36.6593 137.279 35.4824C137.279 34.3055 137.052 33.4324 136.617 32.8249C136.162 32.2175 135.518 31.9138 134.628 31.9138C133.739 31.9138 133.076 32.2175 132.621 32.8249C132.167 33.4324 131.94 34.3055 131.94 35.4634V35.5014Z" fill="black"/>
<path d="M150.818 31.0596V36.6973C150.818 37.6844 150.496 38.4626 149.852 39.0511C149.208 39.6206 148.318 39.9053 147.201 39.9053C146.084 39.9053 145.213 39.6206 144.588 39.0511C143.963 38.4816 143.66 37.6844 143.66 36.6973V31.0786H144.74V36.7732C144.74 37.4945 144.948 38.064 145.383 38.4437C145.8 38.8423 146.425 39.0321 147.258 39.0321C148.091 39.0321 148.659 38.8423 149.076 38.4437C149.511 38.045 149.719 37.4945 149.719 36.7542V31.0786H150.799L150.818 31.0596Z" fill="black"/>
<path d="M66.1604 39.9053H64.9297V31.0596H66.1604V39.9053Z" fill="black"/>
</g>
<defs>
<clipPath id="clip0_1455_31">
<rect width="163.2" height="40" fill="white" transform="translate(0.400024)"/>
</clipPath>
</defs>
</svg>
